<?xml version="1.0" encoding="UTF-8" standalone="no"?>
<!-- Created with Inkscape (http://www.inkscape.org/) -->

<svg
   xmlns:dc="http://purl.org/dc/elements/1.1/"
   xmlns:cc="http://creativecommons.org/ns#"
   xmlns:rdf="http://www.w3.org/1999/02/22-rdf-syntax-ns#"
   xmlns:svg="http://www.w3.org/2000/svg"
   xmlns="http://www.w3.org/2000/svg"
   xmlns:sodipodi="http://sodipodi.sourceforge.net/DTD/sodipodi-0.dtd"
   xmlns:inkscape="http://www.inkscape.org/namespaces/inkscape"
   id="svg2"
   version="1.1"
   inkscape:version="0.48.1 "
   width="500"
   height="839"
   sodipodi:docname="Dz- 12 - Daira d`El Kouif.svg">
  <title
     id="title2995">Reda Kerbouche</title>
  <metadata
     id="metadata8">
    <rdf:RDF>
      <cc:Work
         rdf:about="">
        <dc:format>image/svg+xml</dc:format>
        <dc:type
           rdf:resource="http://purl.org/dc/dcmitype/StillImage" />
        <dc:title>Reda Kerbouche</dc:title>
      </cc:Work>
    </rdf:RDF>
  </metadata>
  <defs
     id="defs6" />
  <sodipodi:namedview
     pagecolor="#ffffff"
     bordercolor="#666666"
     borderopacity="1"
     objecttolerance="10"
     gridtolerance="10"
     guidetolerance="10"
     inkscape:pageopacity="0"
     inkscape:pageshadow="2"
     inkscape:window-width="1280"
     inkscape:window-height="750"
     id="namedview4"
     showgrid="false"
     inkscape:zoom="0.53808594"
     inkscape:cx="228.47328"
     inkscape:cy="588.30101"
     inkscape:window-x="-8"
     inkscape:window-y="-8"
     inkscape:window-maximized="1"
     inkscape:current-layer="svg2"
     showguides="true"
     inkscape:guide-bbox="true" />
  <path
     style="fill:#f4e2ba;stroke:#000000;stroke-width:1px;stroke-linecap:butt;stroke-linejoin:miter;stroke-opacity:1;fill-opacity:1"
     d="m 398.13477,44.122541 -5.73779,4.508259 -2.66397,0.819683 -0.20492,2.663972 -6.76239,2.254129 -5.32794,-1.639367 -4.09842,-4.9181 -13.31985,13.729698 -8.40176,7.582072 -1.43444,0 -0.61477,3.278734 -3.27873,-2.459051 -0.20492,4.098418 -3.07381,0 -3.07382,3.073813 -4.09842,5.327942 -5.53286,0.409842 -21.72161,-14.13954 -0.40984,-21.926533 5.53286,-4.303338 3.8935,-0.614763 0.20492,-1.844287 4.71318,0.20492 4.09842,-2.868892 3.27873,-2.663971 -0.40984,-1.844288 2.45905,-1.844288 3.48365,2.868892 4.9181,-4.303338 7.99192,4.918101 -0.20492,-2.868892 3.07381,2.663971 4.09842,-2.868892 3.27873,1.639367 -2.04921,-6.147626 4.50826,0 3.07381,4.71318 1.02461,-4.71318 3.07381,0.204921 0.61476,7.582072 6.14763,2.45905 10.65589,5.942706 3.07381,2.868892 3.07381,-3.688576 2.66397,-0.204921 z"
     id="path2987"
     inkscape:connector-curvature="0" />
  <path
     style="fill:#f4e2ba;stroke:#000000;stroke-width:1px;stroke-linecap:butt;stroke-linejoin:miter;stroke-opacity:1;fill-opacity:1"
     d="m 387.47888,52.934138 c 0,1.024605 0,9.016518 0,9.016518 l -3.68857,3.688576 6.96731,3.073813 -3.68858,5.532864 6.76239,-0.409842 -1.84429,4.508259 -1.63936,12.910015 2.25413,11.885409 -1.63937,13.11494 1.0246,5.9427 -3.68857,12.50018 5.73778,8.8116 -0.61476,2.86889 -10.04112,0 -9.42636,3.27873 -8.40176,2.86889 -6.35255,4.30334 -4.50826,4.71318 -1.84428,-4.09842 -9.42636,-0.20492 -4.50826,4.71318 -3.68858,-5.12302 6.14763,-7.58207 4.09842,0 -1.63937,-3.68858 3.48365,-6.35254 -0.20492,-3.07382 -4.9181,-4.09841 0.40984,-3.48366 -4.9181,-10.8608 4.50826,-9.22145 -1.84429,-18.033033 1.84429,-4.508259 -6.14762,-4.303338 3.89349,-4.405799 3.07382,-3.381195 3.27873,0.204921 -0.20492,-4.508259 3.48365,2.561511 0.40985,-3.073813 1.63936,-0.10246 8.19684,-7.377152 13.62723,-13.934619 3.8935,5.020562 5.73779,1.844287 z"
     id="path2989"
     inkscape:connector-curvature="0" />
  <path
     style="fill:#f4e2ba;stroke:#000000;stroke-width:1px;stroke-linecap:butt;stroke-linejoin:miter;stroke-opacity:1;fill-opacity:1"
     d="m 315.65412,42.073332 -3.17627,-0.512302 -8.09438,2.868892 -1.0246,-4.098418 -5.43041,0.409842 -5.02056,3.176274 -2.97135,5.942705 -5.02056,-0.614763 -1.33199,4.200878 -2.76643,1.024604 0.61476,7.786993 -6.35254,-0.10246 -1.74183,1.844288 -3.8935,-1.229525 -4.20087,7.684532 -8.09438,5.942705 -0.20492,8.504217 -7.78699,0 -1.84429,-5.123022 -5.94271,9.221439 -7.58207,-6.147626 -4.9181,-2.868892 -2.86889,3.483655 -7.58207,-3.278734 -11.27065,-19.467483 -2.45905,6.762389 -1.63937,0 -3.48365,-5.327943 -2.25413,0.409842 -1.02461,1.434446 -3.89349,-1.434446 0.40984,-3.278734 -4.09842,7.786993 -1.43444,7.172231 -2.45906,6.147626 11.68049,8.401755 3.8935,2.663972 -0.81968,8.196834 11.47557,17.623194 -3.8935,5.53287 0.40984,2.86889 12.50017,12.50017 3.07382,0 0.61476,3.07382 4.30334,-2.66398 4.71318,2.66398 3.89349,-2.66398 5.32795,1.43445 2.04921,-1.63937 6.14762,5.12303 20.69701,-14.13954 9.01652,0.81968 0.81968,-1.22953 2.25413,1.84429 4.09842,-5.12302 9.8362,-6.76239 7.37715,-2.86889 9.01652,-2.25413 6.35255,-12.91002 7.17223,-1.024603 2.66397,-5.737784 -0.61476,-2.868892 3.68857,-3.278734 4.30334,-5.942705 -6.14763,0.819683 -22.13145,-14.13954 -0.20492,-22.131454 z"
     id="path2991"
     inkscape:connector-curvature="0" />
  <path
     style="fill:#f4e2ba;stroke:#000000;stroke-width:1px;stroke-linecap:butt;stroke-linejoin:miter;stroke-opacity:1;fill-opacity:1"
     d="m 261.04271,136.33693 -0.20492,3.68858 5.12302,4.09842 3.27873,1.63936 8.60668,8.40176 11.47557,9.22144 0.61476,3.68858 4.71318,-1.02461 6.96731,-2.04921 5.53286,1.84429 11.06573,-6.55747 8.40176,0.81969 3.68857,2.86889 11.27065,-13.93462 4.30334,0.20492 -2.04921,-3.68858 4.09842,-5.9427 -0.61477,-3.8935 -4.9181,-3.68857 0.20492,-3.8935 -4.71318,-10.45096 4.9181,-9.42637 -2.0492,-17.418271 1.43444,-4.918101 -5.53286,-4.098417 -4.09842,6.147626 -4.09842,2.868892 0.81969,3.688576 -2.66397,4.71318 -6.96731,1.229525 -6.96731,13.11494 -7.787,2.25413 -8.40175,2.66397 -9.42636,6.76239 -3.8935,5.53286 -2.45905,-2.45905 -1.0246,1.63937 -8.40176,-1.02461 z"
     id="path2993"
     inkscape:connector-curvature="0" />
  <path
     style="fill:#ff6600;stroke:#000000;stroke-width:1px;stroke-linecap:butt;stroke-linejoin:miter;stroke-opacity:1;fill-opacity:1"
     d="m 290.14147,167.07507 -0.81968,-4.30334 -11.68049,-8.40176 -7.99192,-8.8116 -2.66397,-0.61476 -6.35254,-5.32794 0.61476,-3.8935 -11.27065,7.58207 -5.9427,-5.12302 -2.8689,2.04921 -4.71318,-1.84429 -1.43444,10.65589 -4.71318,1.22952 -5.53287,-0.40984 -1.43444,2.45905 2.25413,1.63937 -1.43445,6.14763 1.22953,10.65588 3.07381,3.07381 1.0246,13.7297 4.9181,5.32794 0.40985,6.76239 12.29525,10.86081 11.27065,-9.42636 15.57398,-14.7543 4.50826,3.48365 3.48366,0 0.61476,-3.27873 9.8362,7.58207 -0.40984,4.09842 3.48365,2.45905 1.63937,7.78699 4.30334,2.25413 7.78699,-0.20492 4.30334,1.84429 1.22953,3.68857 3.89349,0.40984 0,-2.45905 3.27874,2.45905 1.43444,-0.61476 -2.45905,-4.09842 2.66397,-4.9181 6.96731,-2.86889 17.00843,-19.6724 12.7051,-3.8935 7.99191,-6.55747 -3.89349,-5.9427 -9.01652,-6.14763 -2.25413,-4.9181 -9.42636,0.40984 -5.12302,4.9181 -3.27874,-5.32794 -5.32794,5.94271 -3.07381,-3.07382 -8.8116,-0.61476 -10.65589,6.76239 -5.73778,-2.25413 z"
     id="path2997"
     inkscape:connector-curvature="0" />
  <path
     style="fill:#f4e2ba;stroke:#000000;stroke-width:1px;stroke-linecap:butt;stroke-linejoin:miter;stroke-opacity:1;fill-opacity:1"
     d="m 337.47819,196.17383 6.76239,5.73778 2.45905,0 -1.63937,4.30334 0,12.91002 5.53287,-2.45905 3.27873,2.0492 -15.16414,14.75431 5.12302,-0.20492 6.76239,-1.02461 3.07381,0 -0.61476,7.99192 5.53286,-0.40985 5.53286,-5.9427 3.07382,0 -0.81969,-7.17223 6.14763,4.30334 13.93462,-17.21336 4.71318,5.12302 -8.60668,11.27065 12.50018,6.96731 8.19683,4.09842 6.14763,-5.53286 5.53286,0 6.55747,-4.30334 3.27873,-1.43445 2.25413,2.25413 6.14763,-4.71318 0.20492,-6.76239 -3.27874,-2.04921 -1.22952,-20.08224 -1.63937,-1.63937 2.86889,-4.09842 -0.61476,-12.29525 -1.22952,-1.0246 0.81968,-8.60668 -9.01652,-5.9427 -6.55747,1.0246 -12.91001,-13.7297 -0.20492,-2.66397 -6.96731,-3.48365 -10.45097,-0.20492 -17.00843,6.35254 -6.76239,4.09842 -4.09841,4.9181 9.01651,6.76239 3.8935,5.73778 -7.58207,6.35255 -12.70509,4.09842 z"
     id="path2999"
     inkscape:connector-curvature="0"
     sodipodi:nodetypes="cccccccccccccccccccccccccccccccccccccccccccccccccc" />
  <path
     style="fill:#ff6600;stroke:#000000;stroke-width:1px;stroke-linecap:butt;stroke-linejoin:miter;stroke-opacity:1;fill-opacity:1"
     d="m 273.95272,186.33763 -12.91001,12.09033 -13.7297,12.09033 -1.43445,0.40984 4.09842,4.50826 -1.0246,1.22953 -9.22144,0 -6.14763,5.12302 -15.98383,4.30334 -1.43444,12.09033 6.14762,7.99191 13.7297,3.8935 2.45905,6.76239 8.19684,-10.86081 5.73778,0.61476 6.55747,5.12302 20.08224,10.24605 4.50826,3.89349 7.37715,-1.63936 7.58208,-0.61477 14.54938,-15.36906 3.48365,-10.65589 1.63937,-10.24604 -3.8935,-9.63128 1.02461,-1.84429 -1.84429,-3.68857 -4.50826,-2.04921 -6.76239,0.20492 -4.9181,-1.63937 -1.84429,-8.60668 -3.27873,-2.25412 0.61476,-4.50826 -10.24604,-7.37715 -1.22953,3.89349 -2.25413,0 z"
     id="path3001"
     inkscape:connector-curvature="0" />
  <path
     style="fill:#f4e2ba;stroke:#000000;stroke-width:1px;stroke-linecap:butt;stroke-linejoin:miter;stroke-opacity:1;fill-opacity:1"
     d="m 355.10139,286.95377 0.20492,-5.9427 7.99191,-9.8362 0,-3.8935 4.9181,-5.94271 0.40984,-6.76238 3.48366,-3.07382 -3.48366,-1.84428 -4.71318,-4.50826 -8.19683,0 -2.66397,-2.45905 0.81968,-10.65589 -2.86889,-0.20492 -12.91002,1.63937 16.39367,-15.16415 -3.27873,-1.84429 -5.53286,2.25413 -0.20492,-12.70509 1.84428,-4.71318 -2.66397,0 -7.17223,-5.73778 -6.55747,8.19683 -7.58207,2.66397 -2.45905,5.12302 2.86889,4.09842 -1.63936,0.81968 -3.8935,-3.07381 0.40984,2.66397 -2.86889,0 -1.84429,1.63937 4.30334,9.8362 -1.84429,9.63128 -2.66397,10.86081 3.48366,-0.61476 0,3.07381 -2.04921,2.25413 2.25413,1.63937 -0.40984,4.9181 -1.43445,-0.20492 -0.20492,5.12302 7.17223,5.53286 6.96731,0.40984 4.09842,4.71318 7.78699,0 3.07381,4.30334 3.27874,-0.40984 1.84428,3.48365 2.8689,0.40985 0.81968,4.30333 z"
     id="path3003"
     inkscape:connector-curvature="0" />
  <path
     style="fill:#f4e2ba;stroke:#000000;stroke-width:1px;stroke-linecap:butt;stroke-linejoin:miter;stroke-opacity:1;fill-opacity:1"
     d="m 433.58608,227.11688 0.20492,11.47557 2.25413,1.43444 3.07381,9.83621 5.12302,1.84428 -1.0246,9.63128 -4.50826,-0.20492 -1.84429,1.84429 -3.48365,0 -2.66397,4.30334 -2.45905,2.86889 -2.66397,3.68858 -0.40985,5.53286 -4.50826,6.55747 -2.25412,0.20492 -5.12303,-6.35255 -2.66397,-0.81968 -5.73778,-2.66397 -2.86889,1.22952 -6.14763,0.61477 -3.27873,3.27873 -6.76239,4.50826 -4.71318,4.30334 -4.09842,-1.43445 -2.04921,3.27873 -2.66397,0 -3.48366,-3.68857 -2.45905,1.84429 -3.07381,1.22952 -7.99191,-5.12302 -0.40984,-5.73778 8.60667,-9.01652 -0.40984,-4.50826 5.53286,-5.94271 -0.20492,-6.76238 4.30334,-2.8689 -4.30334,-2.04921 -4.50826,-4.30333 -8.19683,0.40984 -2.86889,-2.45905 0.40984,-3.48366 5.32794,0 5.73779,-6.14762 3.07381,0 -1.22953,-7.58208 6.35255,4.71318 13.93462,-17.21335 5.12302,5.53286 -9.01652,11.47557 20.69701,10.86081 6.35255,-5.94271 4.9181,0 7.17223,-4.50825 3.27873,-1.02461 1.84429,1.84429 z"
     id="path3005"
     inkscape:connector-curvature="0" />
  <path
     style="fill:#f4e2ba;stroke:#000000;stroke-width:1px;stroke-linecap:butt;stroke-linejoin:miter;stroke-opacity:1;fill-opacity:1"
     d="m 421.8537,284.38734 2.75311,3.76742 0.1449,4.78173 -4.49193,8.83895 1.01431,23.47396 -9.41856,-5.50624 -5.50624,-0.86941 -2.46331,-1.3041 -4.63683,0.4347 -2.31842,3.62252 -5.07153,6.23074 -10.28797,0.86941 -2.60821,-1.88371 -3.18782,0 -5.07154,2.31841 -5.21643,-3.18782 7.38995,-3.62252 0,-8.54916 1.88371,-4.92663 -4.05723,-10.43287 -7.82465,-6.81034 4.05723,-1.73881 2.17351,-1.73881 3.04292,3.47762 2.89802,0.5796 2.02861,-3.62252 4.20213,1.59391 4.20213,-4.05723 6.52054,-4.92663 4.49193,-3.18782 5.07153,-0.1449 3.33272,-1.88371 8.54916,3.76742 4.49193,6.37564 2.75312,-0.2898 z"
     id="path3007"
     inkscape:connector-curvature="0"
     sodipodi:nodetypes="cccccccccccccccccccccccccccccccccccc" />
  <path
     style="fill:#f4e2ba;stroke:#000000;stroke-width:1px;stroke-linecap:butt;stroke-linejoin:miter;stroke-opacity:1;fill-opacity:1"
     d="m 373.02208,322.35138 -8.83896,5.50623 -5.07153,-5.21643 -6.95525,-0.5796 -14.20029,5.36133 -3.91232,0 -3.33272,-2.75312 0.5796,-8.25935 -1.15921,-6.37564 -4.49193,2.17351 -6.37564,6.23074 -2.60822,-0.2898 -2.46331,6.23074 -4.34703,6.08584 -3.18782,0.2898 -1.73881,-1.30411 -6.81035,5.36134 -3.33272,-0.1449 -5.21643,-7.96955 2.75312,-4.34703 -0.1449,-11.01247 7.96955,0.7245 -2.31842,-10.86757 4.63683,-0.2898 8.25936,-6.66544 -0.57961,-3.62253 -5.07153,-2.46331 -0.5796,-3.33273 -3.62253,-1.0143 -0.5796,-3.91233 3.33272,0.43471 1.15921,-2.60822 4.05722,-0.4347 3.04292,-5.21644 0.1449,-3.47762 4.05723,-3.91233 6.66544,5.07154 6.81035,-0.2898 4.49193,5.21643 7.38994,0 3.76743,4.49193 2.60822,-0.57961 2.31841,3.76743 2.46332,0.4347 1.3041,4.49193 2.02862,-0.7245 7.38995,4.63683 7.82465,7.38994 3.76742,10.28797 -2.02861,4.49193 z"
     id="path3009"
     inkscape:connector-curvature="0" />
  <path
     style="fill:#f4e2ba;stroke:#000000;stroke-width:1px;stroke-linecap:butt;stroke-linejoin:miter;stroke-opacity:1;fill-opacity:1"
     d="m 238.84381,255.98675 17.09831,1.59391 -5.21643,15.0697 4.05722,4.92663 -4.34702,2.46331 15.06969,8.83896 1.15921,10.43287 5.94094,-1.73881 8.98386,-10.43287 6.66544,6.66544 8.11445,2.46332 -7.82465,-6.08584 -0.2898,-6.52054 -3.47762,-7.24505 4.92663,-4.49193 5.79604,0.72451 3.91232,7.38994 4.05723,0.43471 1.15921,-3.04292 4.05722,-0.2898 3.33272,-4.92664 0.43471,-3.47762 3.47762,-3.76742 -0.2898,-5.94094 1.0143,0.4347 1.30411,-5.36133 -2.75311,-1.30411 2.02861,-2.02861 0.1449,-3.76743 -4.20213,1.44901 -14.34519,15.3595 -7.82465,0.5796 -7.82465,1.59391 -3.76743,-4.34702 -20.14123,-9.70837 -6.95524,-5.94094 -5.79604,-0.5796 z"
     id="path3011"
     inkscape:connector-curvature="0" />
  <path
     style="fill:#f4e2ba;stroke:#000000;stroke-width:1px;stroke-linecap:butt;stroke-linejoin:miter;stroke-opacity:1;fill-opacity:1"
     d="m 420.83939,325.1045 0.4347,7.24504 3.04292,2.31842 1.30411,8.25935 3.62252,3.18782 7.38995,-0.7245 0,1.44901 4.92663,3.18782 4.49193,-0.28981 11.15737,10.28797 2.89802,-2.17351 8.25935,4.05722 15.0697,-1.73881 -19.41672,31.4435 0.4347,7.10015 -6.23074,13.47579 -15.6493,-9.56346 -15.0697,-8.54916 -11.30227,-19.27182 -6.37564,3.91232 -5.21644,0 -5.65113,1.59391 -4.20213,3.33272 -2.60822,-0.8694 0.1449,-7.53485 6.66545,-6.66544 -6.08584,-4.20213 -4.92664,-1.44901 -9.27366,-9.27366 -2.02861,-8.11445 -0.8694,-18.69222 2.60821,-0.1449 3.62253,2.02861 9.85326,-0.86941 7.24505,-9.85326 5.07153,-0.5796 2.75312,1.59391 5.36133,0.5796 z"
     id="path3013"
     inkscape:connector-curvature="0"
     sodipodi:nodetypes="ccccccccccccccccccccccccccccccccccccccc" />
  <path
     style="fill:#f4e2ba;stroke:#000000;stroke-width:1px;stroke-linecap:butt;stroke-linejoin:miter;stroke-opacity:1;fill-opacity:1"
     d="m 458.22383,412.18996 c -9.97101,-6.57484 -20.12509,-12.78356 -30.8639,-17.82282 l -10.86757,-20.14123 -6.52054,4.49193 -5.65114,-0.1449 -5.21643,1.30411 -4.34703,3.76742 -1.30411,-0.5796 -1.44901,29.12509 -3.76742,10.28796 9.41856,9.56347 2.31841,10.72267 -1.1592,1.3041 5.50623,7.24505 -0.1449,4.05723 7.24505,5.79603 1.3041,5.79604 2.46332,0.57961 -2.89802,6.95524 -4.63683,2.89802 -2.75312,7.10014 9.85327,5.07154 3.47762,-2.75312 5.36134,0.2898 c 0,0 2.31841,3.18782 2.89801,3.18782 0.57961,0 4.49193,-0.2898 4.49193,-0.2898 l 0.1449,-18.98202 -2.17351,-2.89802 -0.1449,-4.34703 4.78173,-8.54915 2.17351,-11.01248 5.94094,-13.47578 1.01431,-5.07154 9.27366,-6.81034 z"
     id="path3015"
     inkscape:connector-curvature="0"
     sodipodi:nodetypes="ccccccccccccccccccccccccscccccccccc" />
  <path
     style="fill:#f4e2ba;stroke:#000000;stroke-width:1px;stroke-linecap:butt;stroke-linejoin:miter;stroke-opacity:1;fill-opacity:1"
     d="m 297.67359,335.10266 7.53485,-5.94094 2.02861,1.73881 2.46332,-0.7245 4.63683,-6.37564 2.17351,-5.94094 2.60822,0.4347 6.37564,-6.23074 5.07153,-2.60822 0.86941,6.81035 -0.5796,8.25935 3.33272,2.60822 4.05722,0.1449 13.76559,-5.07153 7.10015,0.1449 5.07153,5.21643 2.46332,-1.59391 4.63683,3.33272 4.34703,-2.75312 0.1449,0.14491 0.8694,18.69222 2.02861,7.82465 9.27366,9.70836 5.21644,1.30411 6.37564,4.20213 -7.10015,6.81034 0,7.82465 1.15921,0 -1.73881,28.69038 -2.89802,7.82466 -19.41672,-4.49193 0.7245,-11.88188 -19.41672,-9.85326 0.4347,-6.81035 -5.50624,0 -2.17351,-2.02861 -9.70836,-0.4347 -0.28981,-8.69406 -5.65113,-16.2289 -13.47579,-16.22891 -1.73881,-0.4347 -2.02861,4.05722 -7.38995,-8.98385 z"
     id="path3017"
     inkscape:connector-curvature="0" />
  <path
     style="fill:#f4e2ba;stroke:#000000;stroke-width:1px;stroke-linecap:butt;stroke-linejoin:miter;stroke-opacity:1;fill-opacity:1"
     d="m 233.77228,258.88477 4.20213,-2.46332 18.25751,1.01431 -5.36133,15.2146 4.34703,5.07153 -4.78173,2.31841 15.06969,8.69406 1.30411,10.43287 5.94094,-1.44901 8.98386,-11.01247 6.81034,6.81034 7.82465,2.31842 -8.40425,-6.08584 0,-6.23074 -3.33272,-6.95525 5.21643,-4.92663 5.36134,0.86941 4.05722,7.24504 1.30411,0.2898 0.4347,3.76743 3.33272,0.7245 0.72451,3.76743 5.21643,2.46331 0.57961,3.47763 -8.54916,6.81034 -4.49193,0 2.31842,11.44717 -7.96955,-0.8694 0.4347,10.72267 -2.60822,3.47762 -3.04292,-0.4347 -26.22707,16.6636 -4.05722,0 -0.72451,-2.75311 -7.24504,0 -2.89802,-3.76743 -11.01247,-0.4347 -9.99817,-10.28797 -7.82465,0 -2.02861,-2.60821 -5.07154,4.63683 -9.12875,-7.24505 -6.66545,8.11445 -4.49193,-4.92663 -6.95524,0 -11.30227,-8.11445 4.92663,-7.24505 0.7245,-7.24505 4.05723,-2.02861 0.2898,-5.07153 2.75312,-3.47762 6.37564,-1.15921 3.76742,-3.76743 2.31842,-5.65113 6.08584,-0.86941 5.36133,-6.52054 3.76743,-2.17351 1.88371,-4.63683 4.49193,0.7245 5.94094,-1.73881 4.63683,-4.49193 z"
     id="path3019"
     inkscape:connector-curvature="0" />
  <path
     style="fill:#f4e2ba;stroke:#000000;stroke-width:1px;stroke-linecap:butt;stroke-linejoin:miter;stroke-opacity:1;fill-opacity:1"
     d="m 217.83318,225.70245 -5.07154,-2.46331 -11.15737,9.56346 -14.77989,7.38995 -6.52055,1.73881 -6.66544,6.08584 0,11.44717 -16.2289,14.05539 -9.56347,12.46148 -4.63683,7.82465 -7.10014,3.04292 -2.89802,-2.46331 -16.95341,8.11445 -9.41856,2.75312 3.76742,2.75311 5.07154,8.69406 0.4347,8.11445 7.53485,-0.2898 9.27366,-5.07153 5.50623,-0.57961 2.46332,-1.0143 4.63683,0.1449 9.85326,9.27366 4.78173,4.92663 11.01247,6.23074 9.27366,2.31842 10.14307,-11.88188 2.75312,0 1.0143,-1.15921 -4.49192,-5.07153 -7.10015,0 -11.73698,-7.82465 5.50624,-7.24505 0.4347,-7.38995 4.63683,-2.17351 -0.2898,-4.78173 2.60822,-3.62252 6.66544,-1.01431 3.91233,-4.49193 1.73881,-4.78173 6.81034,-1.15921 5.36134,-6.81034 3.47762,-2.17352 1.59391,-4.20212 4.05722,0.7245 6.37565,-1.44901 4.78173,-5.07153 4.49193,0 5.07153,-3.18782 -2.02862,-5.79604 -13.91048,-4.20213 -5.07154,-8.11445 z"
     id="path3021"
     inkscape:connector-curvature="0"
     sodipodi:nodetypes="ccccccccccccccccccccccccccccccccccccccccccccccccccccc" />
  <path
     style="fill:#f4e2ba;stroke:#000000;stroke-width:1px;stroke-linecap:butt;stroke-linejoin:miter;stroke-opacity:1;fill-opacity:1"
     d="m 251.45019,434.5047 -7.53485,-1.15921 0,-3.18782 6.23074,-5.65113 0.14491,-8.40426 6.66544,-12.46148 -4.78173,-19.27182 0.8694,-5.50624 5.94094,-7.67975 -0.4347,-8.69405 6.52054,-8.40426 -8.11445,-7.67975 -0.2898,-4.34703 4.20212,0.14491 26.51688,-16.95341 2.75311,0.5796 -0.7245,0.5796 5.65113,8.11446 1.88372,-0.1449 6.66544,2.60821 7.10015,9.41856 2.17351,-4.20212 1.88371,0.8694 13.33089,16.22891 5.50623,15.9391 0.28981,9.12876 9.56346,0 2.31841,2.17351 5.65114,-0.1449 -0.4347,7.10015 19.12692,9.85326 -0.5796,12.02678 2.60821,0.1449 -0.4347,2.46332 5.94094,11.30227 -1.88371,23.47395 -22.02495,10.72267 -2.46331,20.43103 -8.83896,9.56346 -9.70836,0.2898 -11.73698,6.08584 -6.81034,-0.2898 -11.88188,-6.08584 -2.31841,0.2898 -5.65114,16.66361 -5.65114,3.33272 -4.49193,-9.12876 -0.5796,-31.0088 -2.75312,-7.10014 z"
     id="path3023"
     inkscape:connector-curvature="0" />
  <path
     style="fill:#f4e2ba;stroke:#000000;stroke-width:1px;stroke-linecap:butt;stroke-linejoin:miter;stroke-opacity:1;fill-opacity:1"
     d="m 257.25167,346.1759 -0.30738,-4.20087 -1.12706,-2.56151 -6.86485,0 -2.66397,-4.20088 -11.27065,-0.30738 -10.14359,-10.14359 -8.09437,0.10246 -1.63937,-2.86889 -5.32794,4.9181 -9.01652,-7.78699 -6.14762,7.99191 -1.22953,1.94675 -2.56151,-0.10246 -9.93866,11.47557 -0.10246,15.67645 -1.43445,0.71722 0,3.38119 6.14763,4.50826 -2.56151,4.81564 4.09841,6.65993 5.43041,22.23392 2.15167,11.3731 2.86889,7.58208 -2.97135,5.12302 1.43444,0.71722 17.93058,-17.52073 14.13954,-10.34851 9.01652,-5.22548 15.16414,-6.04517 0.81968,-5.4304 6.25009,-7.58207 -0.61476,-8.70914 6.55747,-8.40175 z"
     id="path3025"
     inkscape:connector-curvature="0" />
  <path
     style="fill:#f4e2ba;stroke:#000000;stroke-width:1px;stroke-linecap:butt;stroke-linejoin:miter;stroke-opacity:1;fill-opacity:1"
     d="m 106.25946,305.39797 -4.34703,5.07153 -2.753116,-2.75312 -4.92663,1.01431 -15.6493,3.18782 -0.434706,2.46332 1.738816,2.17351 -2.31842,4.78173 6.95525,7.96955 -5.50624,7.53485 3.47762,15.6493 -2.75312,4.92663 2.75312,1.30411 1.01431,4.34703 8.98386,5.07153 8.983846,-9.85326 5.07154,-9.27366 9.41856,-0.1449 11.73697,-6.66544 9.27366,-6.81035 13.76559,-3.04292 3.91233,-0.8694 0.8694,-4.49193 -9.70836,-9.41856 -4.63683,0 -2.75312,1.3041 -5.94094,0.14491 -8.83895,5.65113 -7.67975,-0.1449 -0.2898,-8.11445 -4.92664,-8.69406 z"
     id="path3027"
     inkscape:connector-curvature="0" />
  <path
     style="fill:#f4e2ba;stroke:#000000;stroke-width:1px;stroke-linecap:butt;stroke-linejoin:miter;stroke-opacity:1;fill-opacity:1"
     d="m 126.11088,343.07221 3.33273,-2.46331 7.24504,-5.21644 17.82282,-3.62252 1.0143,-4.63683 4.92664,4.63683 11.44717,6.66544 8.83896,2.17352 0.1449,15.5044 -1.59391,1.0143 0.2898,3.18782 6.37564,4.34703 -2.89802,4.92663 4.34703,7.10015 4.34703,17.82281 3.04292,14.4901 2.75312,8.54915 -2.89802,5.21644 1.0143,0.4347 -10.57777,9.41856 0.43471,3.91232 -4.92663,1.01431 -12.75129,10.43287 -0.8694,3.33272 -5.21644,-0.1449 -3.47762,-1.59391 -1.88371,2.46332 1.44901,3.18782 -7.82465,8.54915 -5.79604,7.82465 -1.15921,3.18782 -1.1592,2.02862 -0.57961,2.17351 4.34703,0.1449 3.47762,0.86941 1.59391,2.89801 -1.30411,8.98386 -0.8694,7.24505 -8.98386,-6.52054 -4.63683,0.4347 -7.82465,-12.17168 2.02861,-3.91232 -2.31841,-1.15921 0,-6.37564 -5.21644,-5.07154 -8.83895,4.20213 0.5796,-9.56346 -7.53485,-10.14307 7.96955,-7.53484 7.67975,-4.20213 0.43471,-4.34703 -10.28797,-9.85326 -1.44901,-9.41856 9.85326,-7.53485 1.73882,-6.95525 3.76742,-32.45781 3.04292,-15.2146 0.86941,-4.92663 -2.02862,-2.31841 z"
     id="path3029"
     inkscape:connector-curvature="0"
     sodipodi:nodetypes="cccccccccccccccccccccccccccccccccccccccccccccccccccccccccccc" />
  <path
     style="fill:#f4e2ba;stroke:#000000;stroke-width:1px;stroke-linecap:butt;stroke-linejoin:miter;stroke-opacity:1;fill-opacity:1"
     d="m 126.25578,343.36201 3.33273,2.75312 -3.76743,21.88004 -4.20213,30.8639 -1.73881,7.38995 -9.56346,7.53485 -3.62252,2.02861 -9.418556,-0.1449 -7.24505,-14.20029 -10.43287,-12.02678 -0.7245,-7.53485 -1.738813,-0.8694 7.100143,-4.05723 5.94094,-6.23074 1.73881,-2.31841 9.853266,-10.43287 4.78173,-8.98386 9.70836,0 c 3.33272,-1.94524 6.66544,-5.43031 9.99816,-5.65114 z"
     id="path3031"
     inkscape:connector-curvature="0"
     sodipodi:nodetypes="ccccccccccccccccccc" />
  <path
     style="fill:#f4e2ba;stroke:#000000;stroke-width:1px;stroke-linecap:butt;stroke-linejoin:miter;stroke-opacity:1;fill-opacity:1"
     d="m 372.15267,415.23288 16.51871,4.20212 -0.4347,2.60822 9.41856,9.85326 2.46331,10.86758 -1.3041,1.59391 5.50623,6.95524 0,4.49193 7.24505,5.50623 1.1592,5.50624 3.04292,0.4347 -3.62252,7.67975 -4.20213,2.46332 -3.33272,7.24505 9.85327,4.63683 3.62252,-2.31842 5.21643,0 3.76743,3.18782 3.76742,-0.5796 -0.7245,4.78173 -4.63683,0.4347 -2.46332,2.89802 -2.17351,-1.15921 -6.52054,6.37564 -3.91233,0.86941 -3.33272,4.34703 -0.72451,4.05722 5.36134,5.65114 0.1449,10.14307 5.07153,5.65113 -0.1449,7.38995 5.36134,12.89618 -1.88372,2.02862 3.91233,3.33272 -0.4347,4.78173 -1.59391,0.4347 0.2898,9.12876 c 0,0 3.47762,9.85326 4.05722,9.85326 0.57961,0 6.95525,5.65114 6.95525,5.65114 l 3.91232,0 -0.4347,3.62252 -7.24505,-1.3041 -4.34702,-2.60822 -8.69406,-0.1449 -2.02861,-2.89802 -8.25936,0.7245 -12.60638,-15.5044 0.72451,-3.62252 -8.40426,0.7245 -4.78173,4.34703 -4.92663,-0.1449 -1.59391,-1.59391 -7.67975,0.57961 -10.86757,-5.65114 -7.82465,-1.88371 -5.21643,-4.78173 -4.78174,-3.18782 0.28981,-8.54916 4.49193,-26.37197 0.2898,-9.85326 3.47762,-6.23074 -3.76742,-6.81035 -1.15921,-3.91232 9.27366,-10.43287 2.46331,-20.72083 22.02495,-10.14307 1.59391,-23.76375 -6.23074,-11.15738 z"
     id="path3033"
     inkscape:connector-curvature="0" />
  <path
     style="fill:#f4e2ba;stroke:#000000;stroke-width:1px;stroke-linecap:butt;stroke-linejoin:miter;stroke-opacity:1;fill-opacity:1"
     d="m 288.11013,514.20022 6.66544,-4.20213 5.36134,-16.22891 2.60821,-0.4347 12.17168,6.37564 5.94094,-0.1449 12.17168,-6.23074 9.56346,0.1449 0.86941,4.78173 4.05722,6.23074 -3.76742,6.52055 -0.1449,9.56346 -4.49193,27.09647 -0.5796,8.11446 4.78173,3.33272 4.63683,4.49193 8.54915,2.17351 10.72267,5.50624 7.53485,-1.15921 1.30411,1.73881 5.21643,0.1449 5.21644,-4.34703 8.25935,-0.7245 -1.15921,3.91232 12.17168,15.3595 9.12876,-1.0143 1.59391,3.76742 9.56346,-0.5796 2.75312,2.75311 -0.2898,3.91233 -9.85327,15.9391 -7.67975,0.57961 -3.33272,5.50623 3.62253,4.49193 7.96955,3.33272 4.63683,-1.15921 0.5796,0.57961 -0.5796,3.18782 -1.01431,4.92663 -10.28797,3.18782 -1.88371,1.88371 1.73881,5.94094 2.31842,2.02861 -7.82465,1.15921 -3.33272,3.91233 -4.05723,0.2898 0.7245,5.21643 -1.88371,0 5.94094,6.37564 -7.67975,1.44901 -3.62252,1.59391 -3.76743,0.1449 -0.8694,-1.73881 -3.47762,-0.1449 1.88371,5.07154 -4.49193,-0.43471 -0.4347,1.73881 3.18782,4.05723 -6.23074,3.76742 -1.73882,3.33273 -0.5796,2.89801 -5.50623,1.01431 -4.92664,7.38995 -6.08584,1.59391 -2.31841,-1.15921 -4.49193,0.1449 -1.15921,4.49193 -2.60821,0.86941 1.0143,3.91232 -7.10014,-0.2898 -4.92664,0.86941 -9.41856,12.31658 -0.4347,3.33272 -8.11445,1.73881 c 0,0 -4.20213,4.20213 -5.07153,4.20213 -0.86941,0 -8.11446,0.1449 -8.11446,0.1449 l -1.3041,4.05722 -4.63683,0 -1.88372,4.05723 -2.05938,5.98328 -7.40797,2.28648 -6.61665,-1.60432 -4.92663,6.52054 -7.67975,0.1449 -6.52054,-4.63683 -4.49193,-1.449 -4.34703,-6.08584 -11.73698,-1.15921 -6.52054,-12.75128 -4.05723,2.46331 -10.57776,-0.2898 11.73697,-33.03741 -4.78173,-15.6493 -9.99816,-4.49193 8.83895,-14.4901 19.12693,-25.50256 3.18782,-1.44901 2.02861,-11.59208 4.92663,-5.07153 0.43471,-7.82465 5.36133,-32.45781 9.56346,-23.61885 15.2146,-24.92296 z"
     id="path3035"
     inkscape:connector-curvature="0"
     sodipodi:nodetypes="ccccccccccccccccccccccccccccccccccccccccccccccccccccccccccccccccccccccccccsccccccccccccccccccccccccccccc" />
  <path
     style="fill:#f4e2ba;stroke:#000000;stroke-width:1px;stroke-linecap:butt;stroke-linejoin:miter;stroke-opacity:1;fill-opacity:1"
     d="m 148.68917,498.10781 2.18979,-14.9477 -1.99937,-3.33229 -3.52271,-0.57125 c 0,0 -5.04604,-0.38083 -4.6652,-0.0952 0.38083,0.28562 1.04729,-2.18979 1.04729,-2.18979 l 1.42812,-2.09458 0.85688,-3.80833 6.28374,-7.61666 7.52145,-8.37833 -1.61854,-3.33229 2.09458,-2.285 3.04667,1.52334 5.61728,0.38083 0.76167,-3.4275 12.6627,-10.4729 4.95082,-1.1425 -0.47604,-3.80833 11.13937,-9.33041 18.08956,-17.61353 14.09082,-10.18728 9.42562,-5.52208 14.28124,-5.71249 5.23645,19.6129 -6.85499,12.47228 0,8.37832 -6.28375,5.61729 -0.0952,2.95145 7.61666,1.33292 29.89539,32.08518 2.57062,7.42624 0.28563,30.75226 4.85562,8.85437 -0.95208,0.57125 0,8.0927 -15.23332,24.75414 -9.52083,23.80207 -5.33166,31.32351 -0.28562,9.04478 -5.23646,5.14125 -1.99937,11.52019 -3.23708,1.52334 -19.04165,25.23018 -8.85437,14.47165 10.09208,4.28437 4.95083,16.0902 -12.09145,32.75163 -20.08894,0.28563 -18.27998,-26.75352 -5.8077,-1.42812 -11.99624,-5.61729 -1.1425,-36.27434 3.61791,-10.09207 0,-10.47291 -2.09458,-3.80833 0,-5.52208 8.94957,-4.95083 -2.28499,-3.61791 3.23708,-4.37958 3.42749,0.38083 0.76167,-5.52207 3.4275,0 0,-6.855 -3.23708,-2.66583 0.38083,-2.09458 -4.57,-4.37958 -4.76041,2.09458 0.38083,-8.18791 -3.23708,-0.57125 -4.76041,-4.95083 -0.95208,-3.42749 -0.57125,-2.09458 5.33166,-4.37958 0,-6.09333 11.04416,-11.80582 0,-6.66458 3.61791,-7.04541 0,-6.66458 -7.61666,-10.85374 -4.95083,0 0.76167,-2.28499 1.52333,0 -9.13999,-11.42499 -4.76041,0.19041 -3.99875,-5.90291 c 0,0 -3.07046,-0.16661 -5.90291,-0.28562 z"
     id="path3008"
     inkscape:connector-curvature="0"
     sodipodi:nodetypes="ccccscccccccccccccccccccccccccccccccccccccccccccccccccccccccccccccccccccccccccccccccccc" />
  <path
     style="fill:#f4e2ba;stroke:#000000;stroke-width:1px;stroke-linecap:butt;stroke-linejoin:miter;stroke-opacity:1;fill-opacity:1"
     d="m 96.809604,415.81143 9.963706,0.13464 3.23148,-2.4236 1.88503,9.29049 10.36765,9.69442 -0.67323,4.98186 -7.54011,3.9047 -8.21333,7.8094 7.54011,9.69442 -0.40394,9.29049 9.02121,-4.30863 4.71256,5.52044 0.26929,6.19366 1.88503,1.2118 -1.75038,4.57792 8.21333,11.57945 4.30863,-0.67322 9.15585,6.73224 0,-1.2118 5.78972,0.13464 3.77006,6.05902 5.52044,0 9.15584,11.57945 -1.61574,0 -0.94251,2.28896 5.1165,0 6.86689,10.50229 0.40393,6.86689 -3.63541,7.54011 0.26929,6.59759 -11.31016,11.84874 0.13464,5.52044 -5.52043,4.71257 1.61573,5.1165 4.98186,5.1165 3.36612,0.67322 -0.67322,7.8094 4.57792,-2.28896 4.44328,4.57792 0,2.42361 3.36612,2.28896 -0.26929,7.54011 -3.50077,-0.40393 -0.67322,5.92437 -3.09683,-0.53858 -3.50076,4.30863 2.4236,3.63541 -9.15584,4.84721 0.13464,5.52044 2.15432,3.9047 0.26929,10.50229 -4.03935,10.233 0.94252,36.48874 -7.94405,3.63541 -14.67628,5.38579 -5.25114,-7.67475 -5.3858,11.7141 -4.03934,3.9047 -2.96219,-1.4811 0,2.28896 -1.34644,1.75039 -7.27082,0.40393 -3.63541,-3.23147 -0.80787,-13.32984 -3.50076,-36.48874 -6.32831,-19.92742 -7.270816,-7.13618 -7.13617,-1.2118 1.61574,-16.8306 1.61573,-1.34645 -3.36612,-3.23147 0.26929,-8.34798 -8.88655,-6.73224 0,-4.98186 -3.096834,-4.17398 3.770054,-3.50077 2.15432,-14.27235 7.40546,-13.46448 1.75038,-4.30863 -3.9047,0.13465 0.67323,-4.03935 2.15431,-0.94251 -3.36612,-7.40547 -0.40393,-5.25114 -9.694424,-11.84874 0.269289,-11.31017 -2.154317,-0.53858 -7.136173,4.71257 -10.502294,-7.00153 -2.019672,2.55825 -2.692896,-1.48109 1.481093,2.01967 -7.001529,9.42514 -7.809398,7.40546 -0.807868,9.15585 -5.385792,11.98338 -1.615738,1.07716 -4.308633,-4.57792 -1.077158,-5.38579 -2.154317,-2.01967 4.577923,-7.00153 -2.154317,-2.6929 3.36612,-3.63541 -0.269289,-12.11803 8.078687,-8.88655 -0.538579,-4.84722 7.001529,-1.61573 0.807869,-12.65661 6.462949,-13.73377 17.234534,-10.23301 3.770054,-0.26929 13.195187,-21.00458 0.26929,-2.6929 4.30863,-3.50076 -0.26928,-1.34645 z"
     id="path3010"
     inkscape:connector-curvature="0" />
  <path
     style="fill:#f4e2ba;stroke:#000000;stroke-width:1px;stroke-linecap:butt;stroke-linejoin:miter;stroke-opacity:1;fill-opacity:1"
     d="m 88.707984,627.49581 7.42624,1.33292 7.045406,7.04541 6.09333,20.18414 3.99874,49.69871 10.85374,8.75916 2.85625,6.85499 3.61791,4.76041 0.76167,12.94832 -7.99749,8.18791 -0.19042,3.04666 -4.95083,3.23709 -0.19041,4.95082 -6.28375,5.14125 -10.47291,8.56874 -14.471646,29.70497 -49.889118,-17.51831 2.856247,-36.9408 2.094581,-18.4704 8.759159,-32.94205 8.378325,-9.52083 2.856247,-10.47291 6.664578,-10.4729 11.805821,-20.7554 5.7125,-7.42624 z"
     id="path3012"
     inkscape:connector-curvature="0" />
  <path
     style="fill:#f4e2ba;stroke:#000000;stroke-width:1px;stroke-linecap:butt;stroke-linejoin:miter;stroke-opacity:1;fill-opacity:1"
     d="m 86.422984,801.7269 14.662066,-29.70498 16.94707,-13.51957 -0.38084,-5.33166 5.52208,-3.04666 0,-3.4275 7.99749,-7.61666 -0.57125,-13.13874 -3.61791,-4.37957 -2.66583,-7.04541 -7.23583,-5.7125 7.61666,-0.19042 1.33292,-2.09458 -0.38084,-2.47541 3.4275,1.71375 3.61791,-3.99875 5.52208,-11.80582 5.7125,8.18791 22.27873,-8.94958 12.18665,5.14125 5.7125,1.52333 18.08956,26.84872 30.84747,-0.38083 4.18917,-2.85625 6.66457,13.32916 11.80583,0.76166 4.37957,5.90292 4.37958,1.90416 6.66458,5.33166 0,14.85249 0.19042,7.99749 -12.75791,41.51079 0.19042,7.42625 -4.37958,1.1425 -2.09458,-1.33292 -84.16409,-6.28374 -57.88661,-0.76167 z"
     id="path3014"
     inkscape:connector-curvature="0" />
  <path
     style="fill:none;stroke:#000000;stroke-width:2.1;stroke-linecap:butt;stroke-linejoin:miter;stroke-opacity:1;stroke-miterlimit:4;stroke-dasharray:none"
     d="m 188.5,66.875002 4.25,-7.375 -0.375,3.125 4,1.5 1,-1.75 2.25,-0.375 3.5,5.625 1.75,-0.125 2,-7.125 11.375,19.625 7.625,3.5 3,-3.5 5.25,2.875 7.5,6.125 5.75,-9.5 1.875,5.375 7.875,-0.25 0.125,-8.25 8.125,-5.875 4,-8 4.25,1.375 1.75,-1.75 6.125,0.125 -0.75,-8 2.875,-0.5 1.625,-4.5 4.875,0.625 2.875,-6 4.875,-3.25 5.5,-0.5 1.25,4.125 8,-2.75 3.625,0.5 1.375,-0.25 0.25,-2 4.5,0.375 7.75,-5.375 -0.5,-2.125 2.375,-1.75 3.5,3 4.75,-4.625 8.25,5.25 -0.25,-3.125 2.75,2.75 4.625,-3 3.25,2 -2.125,-6.25 4.375,-0.125 3,5 1,-5.125 2.875,0.25 0.875,7.625 6.75,3 10.125,5.625 3,2.875 3,-3.75 2.75,-0.25 3.75,2.25 -5.375,4.25 -2.875,1 -0.625,2.875 -2.125,0.75 0.25,9 -3.875,3.625 7,2.875 -3.5,5.625 6.5,-0.375 -1.875,4.25 -1.5,13.25 2.375,11.874998 -2,13 1.375,5.75 -3.75,12.75 5.875,9.25 -0.625,2.125 6.75,3.5 0.25,2.5 12.875,13.875 6.875,-1 8.875,6 -1,8.5 1.125,1.125 0.75,11.875 -2.625,4.25 1.625,1.875 1,19.875 3.375,2 0.5,18 2,1.125 3.25,10.25 4.875,1.75 -0.875,9.75 -4.375,-0.25 -1.75,1.875 -3.625,-0.125 -2.75,4.75 -5,6 -0.625,6 -3,4.875 2.75,3.625 0,4.875 -4.625,8.875 1.25,30.5 3,2.375 1.375,8.25 3.5,3.125 7.625,-0.625 -0.25,1.25 4.75,3.125 4.875,0 10.75,10 3.25,-2 8.375,4 14.75,-1.875 -19.375,31.5 0.5,7.25 -6.25,13.375 -6.625,6.75 -8.875,6.875 -1.125,5.375 -6.25,13.25 -1.875,11.125 -4.875,8.625 0.25,3.75 2.125,3 0.125,19.125 -1.125,3.875 -4.875,1.125 -2.375,2.75 -2,-1.125 -6.375,6.25 -3.75,0.875 -3.625,4.375 -1.125,4 5.75,5.75 0.25,10 4.875,5.625 -0.125,7.375 5.25,12.5 -1.5,2.5 3.625,3.375 0,4.875 -1.875,0.25 0.25,9.125 4,10 1.25,0.625 5.75,5 4.125,0 -0.75,3.375 -6.625,-1 -1.25,-0.5 -0.375,4.25 -9.75,15.75 -8,0.375 -3,5.75 3.375,4.25 8,3.5 4.875,-1.125 0.5,0.625 -1.5,8.125 -10.25,3.125 -2,1.75 1.75,6.125 2.25,1.875 -7.875,1.5 -3.625,3.75 -3.625,0.25 0.75,5.125 -2.25,0.25 6,6.125 -7.375,1.375 -3.875,1.875 -3.625,0.125 -1,-2 -3.25,0 1.625,5.125 -4.25,-0.75 -0.5,1.875 3.125,4.125 -6,3.625 -1.875,3.375 -0.75,3.125 -5.25,1 -5,7.25 -6.25,1.875 L 358,693 l -4.5,-0.125 -1.5,4.875 -2.5,0.75 0.875,3.75 -7.75,-0.125 -4.375,0.75 -9.375,12.625 -0.375,3.125 -8,1.75 -4.875,4.25 -8.375,0 -1.5,4.125 -4.125,0 -2.5,4.375 -1.875,5.75 -7.125,2.375 -6.875,-1.875 -4.875,6.75 -7.25,0.125 0.125,23.125 -12.625,41.5 0.125,7.625 -4.5,1.25 -2,-1.5 -83.375,-6.25 -33.25,-0.5 -25.5,-0.25 -23.625,-9.5 -49.625,-17.375 2.875,-36.75 2.25,-19 L 50.5,696 58.875,686.625 62,675.75 l 18.5,-31.375 5.625,-6.875 2.625,-10 1.5,-16.75 1.875,-1 -3.75,-3.5 0.5,-8.125 L 80,591.25 79.625,586 l -3,-4 4.125,-3.5 L 82.5,564 90.25,550.875 92,546.5 88.125,547 88.375,542.625 91,541.5 l -3.625,-7.25 -0.375,-5 -9.625,-12 0.375,-11.25 -2.5,-0.75 -7,4.875 -10.5,-7 -2,2.875 -2.5,-1.875 1.25,2.125 -7,9.875 -7.875,6.5 L 39,532 l -5.375,12.125 -1.5,1 -4.625,-4.375 -1,-5.5 -2.125,-2 4.75,-6.875 -2.5,-3 3.75,-3.5 -0.5,-12.25 8.375,-8.875 -0.875,-4.75 7.25,-1.625 0.625,-12.75 6.625,-13.75 17.25,-10.25 3.75,0 L 86,434.5 85.875,432 l 4.75,-3.5 -0.5,-1.625 7,-11.375 L 90,401.5 79.5,389.375 79,381.875 77,381 l 7,-3.875 6.25,-6.25 2,-3.125 -8.625,-4.625 -1,-4.375 -3.125,-1.375 3.125,-5 -3.625,-15.75 5.5,-7.375 -7,-8 2.375,-4.625 -1.875,-2.25 0.625,-2.375 20.625,-4.375 2.875,2.625 4.625,-5.125 10,-2.75 16.5,-8.125 2.75,2.375 0.25,0.125 7.125,-2.75 4.5,-8.125 10,-12.75 16,-13.625 -0.125,-11.875 6.5,-5.75 6.375,-1.5 15,-7.625 11.125,-9.75 5.25,2.75 15.75,-4 6.375,-5.25 9.125,0.125 1,-1.375 -4.375,-4.5 1.25,-0.25 -12.375,-10.875 -0.25,-7.125 -5.125,-4.875 -0.875,-14 -3,-2.875 -1.25,-10.625 1.5,-6.25 -2.25,-1.625 1.25,-2.625 6,0.75 4.375,-1.5 1.25,-9.75 -3.5,2.25 -4.75,-2.75 -4.625,2.625 -0.25,-3.125 -2.75,0 -12.75,-12.375 -0.625,-2.875 4.125,-5.875 -11.75,-17.374998 0.875,-8.5 -15.625,-10.625 2.75,-6.75 z"
     id="path3016"
     inkscape:connector-curvature="0" />
</svg>
